# xmcd
# 
# Track frame offsets:
#     150
#     16270
#     32938
#     47537
#     63715
#     79942
#     104261
#     121422
#     138419
#     154778
#     172715
#     186323
#     202366
#     218086
#     237104
#     252944
#     269690
#     288525
# 
# Disc length: 4089
# 
# Revision: 1
# Processed by: cddbd v1.5.2PL0 Copyright (c) Steve Scherf et al.
# Submitted via: fre:ac v1.0.17
# 
DISCID=0d0ff712
DTITLE=Various Artist - Now! Country 8
DYEAR=2013
DGENRE=Country
TTITLE0=Little Big Town - Pontoon
TTITLE1=Florida Georgia Line - Get Your Shine On
TTITLE2=The Band Perry - Better Dig Two
TTITLE3=Blake Shelton - Sure Be Cool If You Did
TTITLE4=Luke Bryan - Drunk On You
TTITLE5=Zac Brown Band - Goodbye In Her Eyes
TTITLE6=Hunter Hayes - Wanted
TTITLE7=Gary Allan - Every Storm ( Runs Out Of Rain )
TTITLE8=Kip Moore - Beer Money
TTITLE9=Emerson Drive - Let It Roll
TTITLE10=High Valley - Love You For A Long Time
TTITLE11=Dallas Smith - What Kinda Love
TTITLE12=Dierks Bentley - Tip It On Back
TTITLE13=Thomas Rhett - Beer With Jesus
TTITLE14=Dean Brody - Underneath The Apple Trees
TTITLE15=Autumn Hill - Anything At All
TTITLE16=Small Town Pistols - Living On The Outside
TTITLE17=Johnny Reid - Dedicated To You
EXTD=
EXTT0=
EXTT1=
EXTT2=
EXTT3=
EXTT4=
EXTT5=
EXTT6=
EXTT7=
EXTT8=
EXTT9=
EXTT10=
EXTT11=
EXTT12=
EXTT13=
EXTT14=
EXTT15=
EXTT16=
EXTT17=
PLAYORDER=
